<svg width="35" height="35" viewBox="0 0 35 35" fill="none" xmlns="http://www.w3.org/2000/svg">
<path fill-rule="evenodd" clip-rule="evenodd" d="M22.9688 10.9374C22.9688 12.3878 22.3926 13.7788 21.3671 14.8044C20.3415 15.83 18.9505 16.4062 17.5001 16.4062C16.0497 16.4062 14.6587 15.83 13.6331 14.8044C12.6075 13.7788 12.0313 12.3878 12.0313 10.9374C12.0313 9.48705 12.6075 8.09604 13.6331 7.07045C14.6587 6.04486 16.0497 5.4687 17.5001 5.4687C18.9505 5.4687 20.3415 6.04486 21.3671 7.07045C22.3926 8.09604 22.9688 9.48705 22.9688 10.9374ZM23.1023 17.6596C24.4832 16.5082 25.4759 14.9593 25.9456 13.2237C26.415 11.488 26.3382 9.64988 25.726 7.95934C25.1137 6.2688 23.9954 4.80792 22.5235 3.77544C21.0514 2.74298 19.297 2.18909 17.499 2.18909C15.701 2.18909 13.9466 2.74298 12.4746 3.77544C11.0025 4.80792 9.88427 6.2688 9.27199 7.95934C8.65969 9.64988 8.58304 11.488 9.0525 13.2237C9.52196 14.9593 10.5147 16.5082 11.8957 17.6596C9.74231 18.6777 7.90629 20.2622 6.58423 22.2435C5.26217 24.225 4.50383 26.5284 4.39039 28.9078C4.37985 29.3365 4.53756 29.7524 4.82981 30.066C5.12204 30.3799 5.52555 30.567 5.95395 30.5869C6.38233 30.607 6.80152 30.4585 7.12175 30.1732C7.44197 29.888 7.6378 29.4888 7.66726 29.0609C7.78653 26.5332 8.87455 24.1486 10.7055 22.4021C12.5364 20.6555 14.9697 19.681 17.5001 19.681C20.0305 19.681 22.4637 20.6555 24.2947 22.4021C26.1256 24.1486 27.2137 26.5332 27.3329 29.0609C27.3384 29.2794 27.3871 29.4944 27.4768 29.6937C27.5665 29.893 27.6951 30.0724 27.855 30.2211C28.015 30.3701 28.2031 30.4856 28.408 30.5609C28.6132 30.6361 28.8313 30.6696 29.0496 30.6593C29.268 30.6492 29.4819 30.5954 29.6792 30.5014C29.8763 30.4073 30.0528 30.2749 30.1981 30.1118C30.3435 29.9486 30.4547 29.758 30.5253 29.5513C30.5962 29.3446 30.6249 29.1256 30.6098 28.9078C30.496 26.5282 29.7374 24.2245 28.415 22.2431C27.0925 20.2618 25.2561 18.6774 23.1023 17.6596Z" fill="black"/>
</svg>
