<svg width="40" height="40" viewBox="0 0 40 40" fill="none" xmlns="http://www.w3.org/2000/svg">
<rect x="1" y="1" width="38" height="38" rx="9" stroke="black" stroke-width="2"/>
<path d="M11.9375 17.4219C11.9375 14.8281 12.5521 12.7396 13.7812 11.1562C15.0208 9.57292 16.6875 8.78125 18.7812 8.78125C20.6354 8.78125 22.0781 9.41667 23.1094 10.6875L23.2969 9.09375H27.3906V25.4375C27.3906 26.9167 27.0521 28.2031 26.375 29.2969C25.7083 30.3906 24.7656 31.224 23.5469 31.7969C22.3281 32.3698 20.901 32.6562 19.2656 32.6562C18.026 32.6562 16.8177 32.4062 15.6406 31.9062C14.4635 31.4167 13.5729 30.7812 12.9688 30L14.9688 27.25C16.0938 28.5104 17.4583 29.1406 19.0625 29.1406C20.2604 29.1406 21.1927 28.8177 21.8594 28.1719C22.526 27.5365 22.8594 26.6302 22.8594 25.4531V24.5469C21.8177 25.724 20.4479 26.3125 18.75 26.3125C16.7188 26.3125 15.0729 25.5208 13.8125 23.9375C12.5625 22.3438 11.9375 20.2344 11.9375 17.6094V17.4219ZM16.4531 17.75C16.4531 19.2812 16.7604 20.4844 17.375 21.3594C17.9896 22.224 18.8333 22.6562 19.9062 22.6562C21.2812 22.6562 22.2656 22.1406 22.8594 21.1094V14C22.2552 12.9688 21.2812 12.4531 19.9375 12.4531C18.8542 12.4531 18 12.8958 17.375 13.7812C16.7604 14.6667 16.4531 15.9896 16.4531 17.75Z" fill="#7DB1ED"/>
</svg>
