<svg width="35" height="35" viewBox="0 0 35 35" fill="none" xmlns="http://www.w3.org/2000/svg">
<g clip-path="url(#clip0)">
<path fill-rule="evenodd" clip-rule="evenodd" d="M3.82815 4.375C1.71393 4.375 2.2898e-05 6.08891 2.2898e-05 8.20312V9.81262C-0.00033358 9.83235 -0.000332727 9.85208 2.2898e-05 9.87179V26.7969C2.2898e-05 28.9111 1.71393 30.625 3.82815 30.625H31.1719C33.2861 30.625 35 28.9111 35 26.7969V9.87142C35.0005 9.85197 35.0005 9.83248 35 9.81299V8.20312C35 6.08891 33.2861 4.375 31.1719 4.375H3.82815ZM31.7188 8.90376V8.20312C31.7188 7.9011 31.474 7.65625 31.1719 7.65625H3.82815C3.52612 7.65625 3.28127 7.9011 3.28127 8.20312V8.90376L17.5 17.2389L31.7188 8.90376ZM3.28127 12.7072V26.7969C3.28127 27.099 3.52612 27.3438 3.82815 27.3438H31.1719C31.474 27.3438 31.7188 27.099 31.7188 26.7969V12.7072L18.3297 20.556C17.8174 20.8563 17.1827 20.8563 16.6703 20.556L3.28127 12.7072Z" fill="black"/>
</g>
<defs>
<clipPath id="clip0">
<rect width="35" height="35" fill="white"/>
</clipPath>
</defs>
</svg>
